<svg width="74" height="96" viewBox="0 0 74 96" fill="none" xmlns="http://www.w3.org/2000/svg">
<path d="M29.1777 76.5859C25.0111 75.7396 21.1536 74.1934 17.6055 71.9473C14.0898 69.6686 11.0299 66.8691 8.42578 63.5488C5.85417 60.2285 3.83594 56.485 2.37109 52.3184C0.938802 48.1191 0.222656 43.6758 0.222656 38.9883C0.222656 35.4401 0.645833 32.0384 1.49219 28.7832C2.33854 25.4954 3.52669 22.4355 5.05664 19.6035C6.58659 16.7389 8.42578 14.151 10.5742 11.8398C12.7552 9.49609 15.1641 7.49414 17.8008 5.83398C20.4701 4.17383 23.3346 2.88802 26.3945 1.97656C29.4544 1.0651 32.6608 0.609375 36.0137 0.609375C39.3665 0.609375 42.5729 1.0651 45.6328 1.97656C48.7253 2.88802 51.5898 4.17383 54.2266 5.83398C56.8958 7.49414 59.3047 9.49609 61.4531 11.8398C63.6341 14.151 65.4896 16.7389 67.0195 19.6035C68.582 22.4355 69.7865 25.4954 70.6328 28.7832C71.4792 32.0384 71.9023 35.4401 71.9023 38.9883C71.9023 43.7409 71.1536 48.2331 69.6562 52.4648C68.1589 56.6966 66.0755 60.4889 63.4062 63.8418C60.7695 67.1947 57.6283 69.9941 53.9824 72.2402C50.3366 74.4863 46.3815 75.9837 42.1172 76.7324C43.1263 77.1556 44.1191 77.6113 45.0957 78.0996C46.1048 78.6204 47.1139 79.0924 48.123 79.5156C49.1322 79.9714 50.125 80.3457 51.1016 80.6387C52.1107 80.9642 53.1361 81.1432 54.1777 81.1758C55.1868 81.1758 56.1634 81.0456 57.1074 80.7852C58.084 80.5247 58.9629 80.1178 59.7441 79.5645C60.5254 79.0111 61.1927 78.2949 61.7461 77.416C62.332 76.5371 62.7227 75.4629 62.918 74.1934L73.8066 79.6133C73.5137 81.9896 72.8301 84.138 71.7559 86.0586C70.7142 87.9792 69.3633 89.623 67.7031 90.9902C66.043 92.3574 64.1549 93.4154 62.0391 94.1641C59.9232 94.9128 57.6771 95.2871 55.3008 95.2871C53.3802 95.2871 51.4434 94.9128 49.4902 94.1641C47.5697 93.4479 45.6979 92.6504 43.875 91.7715C42.0846 90.9251 40.3919 90.1276 38.7969 89.3789C37.2018 88.6628 35.8021 88.3047 34.5977 88.3047C34.0768 88.3047 33.6048 88.2884 33.1816 88.2559C32.791 88.2559 32.4004 88.2559 32.0098 88.2559C31.6191 88.2884 31.1797 88.3372 30.6914 88.4023C30.2357 88.5 29.6986 88.6628 29.0801 88.8906L29.1777 76.5859ZM36.0137 61.9863C38.8457 61.9863 41.4336 61.3841 43.7773 60.1797C46.1536 58.9427 48.1882 57.2826 49.8809 55.1992C51.5736 53.0833 52.8757 50.6419 53.7871 47.875C54.7311 45.0755 55.2031 42.1133 55.2031 38.9883C55.2031 35.8307 54.7311 32.8522 53.7871 30.0527C52.8431 27.2533 51.5085 24.8118 49.7832 22.7285C48.0905 20.6126 46.0723 18.9525 43.7285 17.748C41.3848 16.5111 38.8132 15.8926 36.0137 15.8926C33.2142 15.8926 30.6426 16.5111 28.2988 17.748C25.9551 18.9525 23.9368 20.6126 22.2441 22.7285C20.5514 24.8118 19.2168 27.2533 18.2402 30.0527C17.2962 32.8522 16.8242 35.8307 16.8242 38.9883C16.8242 42.1133 17.2962 45.0755 18.2402 47.875C19.2168 50.6419 20.5514 53.0833 22.2441 55.1992C23.9368 57.2826 25.9551 58.9427 28.2988 60.1797C30.6426 61.3841 33.2142 61.9863 36.0137 61.9863Z" fill="black"/>
</svg>
